<svg xmlns="http://www.w3.org/2000/svg" viewBox="0 0 263.1 37.29" width="190.15" height="34"><defs><style>.cls-1{fill:#69d03c;}</style></defs><title>Asset 1</title><g id="Layer_2" data-name="Layer 2"><g id="Layer_1-2" data-name="Layer 1"><path class="cls-1" d="M27.53,2.9h0L20.79,1.27V13.13a5.82,5.82,0,0,1-1.2,3.21l-2.3,2.81-.84-1,2-2.46a4.85,4.85,0,0,0,1-2.54V.94L15.84.08h0A3.38,3.38,0,0,0,15.12,0h0a3.39,3.39,0,0,0-.73.08h0L10.87.93V12.59a4.52,4.52,0,0,0,.88,2.34l8.78,10.63A6.08,6.08,0,0,1,21.82,29v4.58L28.69,29h0a3.28,3.28,0,0,0,1.54-2.76V6.13a3.31,3.31,0,0,0-2.7-3.23"/><path class="cls-1" d="M18.48,26.64,9.7,16a6.09,6.09,0,0,1-1.28-3.42V1.52L2.7,2.9A3.31,3.31,0,0,0,0,6.13V26.26A3.27,3.27,0,0,0,1.54,29h0L8.48,33.6V29a5.81,5.81,0,0,1,1.2-3.21L12.78,22l.84,1-2.81,3.4c-.65.79-1,2.25-1,4.6V34.5l3.32,2.19h0a3.39,3.39,0,0,0,1.93.6h0a3.39,3.39,0,0,0,1.94-.6h0l2.3-1.51V29a4.53,4.53,0,0,0-.88-2.34"/><path class="cls-1" d="M26.48,33.16a1.66,1.66,0,0,1,.37-.53,1.69,1.69,0,0,1,.54-.35,1.69,1.69,0,0,1,2.2.88,1.62,1.62,0,0,1,.14.66,1.66,1.66,0,0,1-.14.67,1.7,1.7,0,0,1-.36.53,1.64,1.64,0,0,1-.54.35,1.75,1.75,0,0,1-1.31,0,1.67,1.67,0,0,1-1-1.56A1.62,1.62,0,0,1,26.48,33.16Zm.28,1.23a1.4,1.4,0,0,0,.29.46,1.36,1.36,0,0,0,1,.41,1.33,1.33,0,0,0,.54-.11,1.36,1.36,0,0,0,.44-.3,1.4,1.4,0,0,0,.29-.46,1.52,1.52,0,0,0,.11-.57,1.49,1.49,0,0,0-.11-.56,1.37,1.37,0,0,0-.73-.75,1.34,1.34,0,0,0-.54-.11,1.36,1.36,0,0,0-1.28.86,1.49,1.49,0,0,0-.11.56A1.52,1.52,0,0,0,26.75,34.39Zm1.39-1.55a.8.8,0,0,1,.52.14.52.52,0,0,1,.17.42.48.48,0,0,1-.15.39.66.66,0,0,1-.37.15l.56.87h-.33L28,34h-.32v.84h-.31v-2Zm-.13.87h.2l.16,0a.26.26,0,0,0,.11-.1.33.33,0,0,0,0-.18.29.29,0,0,0,0-.16.26.26,0,0,0-.1-.09l-.14,0h-.56v.63Z"/><path d="M201,8h-.7a.61.61,0,0,0-.57.57v14.1a1.68,1.68,0,0,1-1.84,1.73,1.71,1.71,0,0,1-1.27-.6L183.37,9.19A3.56,3.56,0,0,0,180.7,8,3.89,3.89,0,0,0,177,12V25.64a.61.61,0,0,0,.6.56h.7a.61.61,0,0,0,.57-.57V12a2,2,0,0,1,1.84-2.18,1.71,1.71,0,0,1,1.27.6L195.23,25a3.56,3.56,0,0,0,2.67,1.22,3.49,3.49,0,0,0,3.72-3.57V8.51A.61.61,0,0,0,201,8"/><path d="M71.74,24.34H54.54a2,2,0,0,1-1.84-2.18V11.9a2.35,2.35,0,0,1,.57-1.48,1.7,1.7,0,0,1,1.26-.6H71.75a.61.61,0,0,0,.61-.59V8.55A.61.61,0,0,0,71.74,8H54.53a3.56,3.56,0,0,0-2.66,1.23,4.17,4.17,0,0,0-1,2.61V22.16a3.88,3.88,0,0,0,3.72,4h17.2a.61.61,0,0,0,.61-.59V24.9a.61.61,0,0,0-.61-.56"/><path d="M133.76,24.34h-17.2a2,2,0,0,1-1.84-2.18V8.58a.61.61,0,0,0-.6-.6h-.7a.61.61,0,0,0-.57.6V22.16a3.88,3.88,0,0,0,3.72,4h17.2a.61.61,0,0,0,.61-.59V24.9a.62.62,0,0,0-.61-.56"/><path d="M231.74,24.34h-17.2a2,2,0,0,1-1.84-2.18V11.9a2.35,2.35,0,0,1,.57-1.48,1.7,1.7,0,0,1,1.26-.6l17.21,0a.61.61,0,0,0,.61-.59V8.58a.61.61,0,0,0-.61-.56L214.52,8a3.56,3.56,0,0,0-2.66,1.23,4.18,4.18,0,0,0-1,2.61V22.16a3.88,3.88,0,0,0,3.72,4h17.2a.61.61,0,0,0,.61-.59V24.9a.61.61,0,0,0-.61-.56"/><path d="M263.08,24.9a.61.61,0,0,0-.61-.56h-17.2a2,2,0,0,1-1.84-2.18V11.9a2.35,2.35,0,0,1,.57-1.48,1.7,1.7,0,0,1,1.26-.6h17.23a.61.61,0,0,0,.61-.59V8.55a.61.61,0,0,0-.61-.56H245.26a3.56,3.56,0,0,0-2.66,1.23,4.18,4.18,0,0,0-1,2.61V22.16a3.88,3.88,0,0,0,3.72,4h17.2a.61.61,0,0,0,.61-.59Z"/><path d="M93.19,16.53,83,8.1A.71.71,0,0,0,82.65,8a.7.7,0,0,0-.5.21l-.47.53a.57.57,0,0,0,.11.81l9.76,8.14v7.9a.64.64,0,0,0,.63.6H93a.63.63,0,0,0,.62-.6V17.25a.89.89,0,0,0-.38-.72"/><path d="M103.58,7.71a.63.63,0,0,0-.83-.09l-8.07,6.67a.6.6,0,0,0-.09.82l.52.56a.63.63,0,0,0,.47.21.65.65,0,0,0,.36-.11l8-6.68a.6.6,0,0,0,.1-.83Z"/><path d="M167.77,25.25l-8.49-15.16a4.09,4.09,0,0,0-7.16,0l-8.49,15.16a.6.6,0,0,0,.43.92h.64a.62.62,0,0,0,.27-.06l.08,0a.62.62,0,0,0,.15-.14l0,0s8-14,8.53-14.94a2.2,2.2,0,0,1,3.87,0c.58.94,8.53,14.94,8.53,14.94l0,0a.62.62,0,0,0,.15.14l.08,0a.62.62,0,0,0,.27.06h.64a.6.6,0,0,0,.43-.92Z"/><path d="M256.07,16.16h-9.32a.61.61,0,0,0-.57.59v.69a.61.61,0,0,0,.59.56h9.31a.61.61,0,0,0,.58-.59v-.68a.61.61,0,0,0-.6-.56"/></g></g></svg>